<svg xmlns="http://www.w3.org/2000/svg" width="436.141" height="90.7" viewBox="0 0 436.141 90.7">
  <g id="组_4" data-name="组 4" transform="translate(-34.926 -77)">
    <g id="组_1" data-name="组 1" transform="translate(34.926 77)">
      <path id="路径_1" data-name="路径 1" d="M485.258,241.46H484.3v17.353h-2.384V241.465H480v36.616h1.917V260.732H484.3v17.343h.961a4.666,4.666,0,0,0,4.871-4.776V246.364A4.725,4.725,0,0,0,485.258,241.46Zm2.953,31.836a2.58,2.58,0,0,1-2,2.717V243.526a2.673,2.673,0,0,1,2,2.838Z" transform="translate(-444.328 -213.627)" fill="#642c3c"/>
      <path id="路径_2" data-name="路径 2" d="M577.425,241.46H572.34v1.917h3l-2.97,34.7h5.083V276.16h-3Z" transform="translate(-526.024 -213.627)" fill="#642c3c"/>
      <path id="路径_3" data-name="路径 3" d="M626.3,241.49v36.617h1.917V260.759h1.795v-1.917h-1.795V243.4h1.795V241.49Z" transform="translate(-573.764 -213.653)" fill="#642c3c"/>
      <path id="路径_4" data-name="路径 4" d="M215.664,90.7a87.332,87.332,0,0,1-43.688-11.693l-1.436-.83V76.518A87.7,87.7,0,0,1,214.219.833L215.664,0l1.44.833A87.7,87.7,0,0,1,260.779,76.5v1.674l-1.436.83A87.332,87.332,0,0,1,215.664,90.7ZM176.309,74.848a81.712,81.712,0,0,0,78.7,0A81.964,81.964,0,0,0,215.66,6.665,81.938,81.938,0,0,0,176.309,74.848Z" transform="translate(-170.54 0)" fill="#642c3c"/>
      <path id="路径_5" data-name="路径 5" d="M483.013,150.029l-.237.392-8.143-5.083V144.17h-1.918v1.169l-8.145,5.083-.236-.392H462.09l1.623,2.679h19.922l1.621-2.68Zm-3.267.761H467.6L473.674,147Z" transform="translate(-428.483 -127.551)" fill="#642c3c"/>
      <path id="路径_6" data-name="路径 6" d="M335.786,501.078v-2.707h8.59L346,495.69h-2.243l-.462.764H329.615l-.462-.764H326.91l1.624,2.681h5.334v4.624h7.211l2.471,4.245H316.808l2.391,6.869h-9.4l2.393-6.869h-26.6l2.471-4.245h7.21v-4.624h5.334l1.624-2.681h-2.242l-.462.764H285.848l-.462-.764h-2.243l1.625,2.681h8.59v2.707h-6.4l-4.7,8.079H309.5l-2.392,6.87H321.9l-2.391-6.87h27.379l-4.7-8.079Z" transform="translate(-269.382 -438.551)" fill="#642c3c"/>
    </g>
    <g id="组_3" data-name="组 3" transform="translate(149.158 77)">
      <path id="路径_12" data-name="路径 12" d="M25.09,930.344a11.02,11.02,0,0,0,.287,1.2c.347,1.087.66,2.065,2.234,1.388a9.1,9.1,0,0,1,2.951-.35,3.787,3.787,0,0,0,2.243-.829c1.064-.918,1.113-1.6.209-2.644a5.555,5.555,0,0,0-4.95-2.048,3.134,3.134,0,0,0-2.977,3.281" transform="translate(-17.905 -925.848)" fill="#642c3c"/>
      <g id="组_2" data-name="组 2" transform="translate(0)">
        <path id="路径_7" data-name="路径 7" d="M618.727,965.327c-.02,2.4.212,2.547,1.97,1.692a6.455,6.455,0,0,0,2.409-2.188,12.809,12.809,0,0,1,1.385-2.039c1.147-1.1.915-2.294.453-3.533-.8-2.168-2.263-2.461-3.728-.677a11.712,11.712,0,0,0-2.484,6.746" transform="translate(-441.287 -947.517)" fill="#642c3c"/>
        <path id="路径_8" data-name="路径 8" d="M588.537,974.576c.143-1.015.25-1.767.35-2.515a12.157,12.157,0,0,0,.063-3.855c-.169-.935-.528-1.213-1.434-.539-1.841,1.365-2.085,3.361-1.922,5.323a22.871,22.871,0,0,1-1.976,11.406,44.272,44.272,0,0,0-3.175,8.03,6.9,6.9,0,0,0,.516,5.211.966.966,0,0,0,1.434.459,4.341,4.341,0,0,0,2.753-3.943c.118-1.7.106-3.41.083-5.114a9.391,9.391,0,0,1,1.457-5.226A38.634,38.634,0,0,1,591.276,978c2.945-3.155,6.06-6.149,10.25-7.554,3.313-1.11,4.047-1.288,3.083,2.7-.525,2.177-.109,2.765,1.985,3.442.215.072.427.152.642.221,2.228.714,2.487,1.285,1.506,3.5a15.526,15.526,0,0,1-1,1.8,6.329,6.329,0,0,0-.878,2.008,2.636,2.636,0,0,0,1.641,3.261,29.521,29.521,0,0,0,6.27,1.8c.287.06.829-.115.86.416a1.055,1.055,0,0,1-.611,1.007c-.573.27-1.187.465-1.747.766a1.049,1.049,0,0,0-.545,1.17c.106.534.573.347.906.356a18.548,18.548,0,0,0,2.868-.037c3.324-.427,6.536-1.213,9.149-3.525a4.165,4.165,0,0,0,1.276-4.752c-.6-1.755-2.062-2.334-3.751-2.475a20.283,20.283,0,0,0-8.136,1.336c-.6.195-1.311.926-1.827.358a2.46,2.46,0,0,1-.141-2.266,21.99,21.99,0,0,1,.924-2.294,16.832,16.832,0,0,0,.786-2.048,3.268,3.268,0,0,0-2.051-4.259,5.079,5.079,0,0,1-1.612-1.012,2.13,2.13,0,0,1,.493-3.674,7.135,7.135,0,0,1,4.764-.666c.493.08,1.121.407,1.523-.152a8.991,8.991,0,0,0,1.873-3.327c.445-2.12-.338-3.4-2.409-3.855-.757-.163-1.523-.267-2.277-.436-.321-.072-.766-.075-.654-.651.218-1.147-.287-2.295-.2-3.442a.991.991,0,0,0-.622-1.07c-1.623-.909-3-.387-3.815,1.514a45.809,45.809,0,0,0-1.652,6.246c-.169.622-.31,1.19-1.093,1.388a38.091,38.091,0,0,0-12.923,6.611c-1.8,1.311-3.579,2.638-5.6,4.127" transform="translate(-413.79 -945.234)" fill="#642c3c"/>
        <path id="路径_9" data-name="路径 9" d="M819.218,953.115a5,5,0,0,0-.312-1.681c-1.078-2.432-2.512-2.7-4.176-.711a11.092,11.092,0,0,0-1.339,2.068,24.008,24.008,0,0,0-1.853,6.164c-.559,2.6-1.041,5.231-2.487,7.528-.677,1.084-1.451,1.959-2.922,1.815a9.211,9.211,0,0,0-2.294.186c-2.079.341-4.21.634-4.976,3.129-.5,1.589-.25,1.933,1.391,2.1,1.721.175,3.442-.066,5.162.221.952.158,1.308.528,1.222,1.526a11.978,11.978,0,0,1-1,3.978,23.055,23.055,0,0,1-4.589,6.132,27.8,27.8,0,0,0-4.953,6.373c-.439.86-.287,1.11.631,1.11a7.947,7.947,0,0,0,6.324-3.261,26.332,26.332,0,0,0,3.252-5.555,3.956,3.956,0,0,1,1.044-1.4,19.767,19.767,0,0,0,6.64-10.038,4.628,4.628,0,0,1,3.806-3.539,46.727,46.727,0,0,0,5.128-1.339,5.36,5.36,0,0,0,2.748-2.151c.513-.812.3-1.259-.6-1.408a12.782,12.782,0,0,0-3.668.08c-1.56.2-3.109.659-4.721.218-.86-.238-1.187-.522-.9-1.514a48.7,48.7,0,0,1,2.214-5.326,11.851,11.851,0,0,0,1.222-4.689" transform="translate(-567.616 -941.801)" fill="#642c3c"/>
        <path id="路径_10" data-name="路径 10" d="M882.334,1063.224c-.344-.106-.674-.232-1.018-.31-5.868-1.331-11.644-2.868-16.385-6.932-.37-.316-.574-.227-.861.1-1.617,1.72-1.219,5.245.734,6.447,1.434.884,2.834,1.821,4.268,2.7a17.687,17.687,0,0,0,4.678,2.18c4.121,1.13,7.09-.287,8.6-4.187" transform="translate(-615.548 -1017.675)" fill="#642c3c"/>
        <path id="路径_11" data-name="路径 11" d="M213.308,972.232a6.668,6.668,0,0,0-4.081-2.295c-2.6-.507-5.257-.267-7.878-.531a8.783,8.783,0,0,1-5.162-1.91c-1.348-1.182-1.368-1.483-.287-2.868a67.339,67.339,0,0,0,5.928-7.922,15.005,15.005,0,0,0,1.876-11.128c-.287-1.319-.875-1.489-1.962-1.282-1.388.264-2.664.958-4.087,1.041-1.721.106-1.721.1-1.721-1.612,0-3.02,0-3.005,2.868-4.015a5.826,5.826,0,0,0,2.581-1.477c.717-.792.178-1.738.221-2.6.017-.347-.723-.47-1.07-.335-2.117.829-2.848-.4-3.3-2.151a2.788,2.788,0,0,0-.479-.829c-.967-1.4-1.947-1.354-2.771.129a14.652,14.652,0,0,0-1.038,3.41c-.258.975-.683,1.6-1.861,1.514a27.185,27.185,0,0,0-3.267.115,19.206,19.206,0,0,0-6.31.86,3.578,3.578,0,0,0-2.441,3.984c.135,1.792,1.511,2.294,2.788,1.5,1.388-.877,2.771-1.764,4.2-2.564a5.67,5.67,0,0,1,4.3-.843c1.738.45,1.836.622,1.331,2.332a4.374,4.374,0,0,0-.287,1.2c.026,2.007-.981,3-2.811,3.728-2.469.972-2.438,1.147-2.512-1.566-.026-.861-.25-.886-.952-.591a7.17,7.17,0,0,0-4.064,4.42,23.386,23.386,0,0,0,.938,17.713c.5,1.124,1.38,1.193,2.251.31,1.187-1.208,1.187-1.208,2.008.287.089.161.2.31.287.465a1.673,1.673,0,0,1-.25,2.34c-1.781,1.784-3.519,3.6-5.274,5.412a21.584,21.584,0,0,0-3.786,4.876,7.872,7.872,0,0,0-.989,5.3c.169.86.445.829,1.061.439a18.7,18.7,0,0,0,3.106-2.467c1.772-1.721,3.244-3.729,4.876-5.6a19.425,19.425,0,0,1,4.876-4.348,3.223,3.223,0,0,1,.1,1.566c0,1.83-.622,3.648-.063,5.489.327,1.073.749,2.55,1.721,2.581,1.147.037,1.638-1.417,1.884-2.555.376-1.75.6-3.531.989-5.277.668-2.954,1.073-3.155,3.921-2.263,3.344,1.027,6.674,2.177,10.259,1.773a6.259,6.259,0,0,0,4.3-2.369A.909.909,0,0,0,213.308,972.232Zm-25.692-12.981a16.018,16.018,0,0,1-.361,3.545,3.4,3.4,0,0,1-2.194,2.455c-.141-3.155-.373-6.169.287-9.158.551-2.512,2.1-3.467,4.207-2.627-1.939,1.483-1.77,3.688-1.939,5.773Zm8.7-8.243a2.476,2.476,0,0,1,2.105-1.058c.952.046,1.454.318,1.2,1.523a13.867,13.867,0,0,1-2.994,5.449c-.361.473-.614.186-.86-.083a2.894,2.894,0,0,1-.685-2.226A5.432,5.432,0,0,1,196.32,951.008Z" transform="translate(-125.617 -928.897)" fill="#642c3c"/>
        <path id="路径_13" data-name="路径 13" d="M29.127,952.587a17.464,17.464,0,0,0-3.479.622c-1.05.186-2.607.783-2.994-.052-.427-.9.806-1.973,1.615-2.791a43.621,43.621,0,0,1,4.509-3.336,9.143,9.143,0,0,0,2.63-3.123,1.63,1.63,0,0,0-.33-2.088,5.583,5.583,0,0,0-5.14-1.543,29.884,29.884,0,0,0-5.082,1.408v-1.317c0-2.346.026-2.406,2.337-3.031,1.271-.344,2.581-.551,3.829-.949,1.623-.516,2.931-2.22,2.639-3.255-.373-1.328-1.927-1.861-3.966-1.359-1.187.287-2.363.665-3.565.861a1.813,1.813,0,0,1-2.206-.961,2.083,2.083,0,0,1,1.041-2.475,6.94,6.94,0,0,1,1.629-.671,16.138,16.138,0,0,1,2.246-.553,2.116,2.116,0,0,0,1.922-2.277,2.447,2.447,0,0,0-1.721-2.4,6.325,6.325,0,0,0-3.88-.169,1.989,1.989,0,0,0-1.675,1.692,14.918,14.918,0,0,1-8.108,10.489,2.385,2.385,0,0,1-1.8.232,3.826,3.826,0,0,0-3.27.508A2.546,2.546,0,0,0,5.01,938.2c.054.929,1.511,1.853,2.521,1.853,1.988,0,3.642-1.024,5.392-1.772,1.015-.436,2.553-1.285,3.1-.238s-.749,2.174-1.775,2.894a18.158,18.158,0,0,1-4.471,1.988,22.041,22.041,0,0,0-5.578,2.5,6.164,6.164,0,0,0-2.727,4.434c-.109.909.141,1.4,1.133,1.391,1.147-.017,2.406-.287,3.367.135,1.46.642,2.22.063,3.129-.86a8.512,8.512,0,0,1,4.81-2.937c1.678-.25,2.406.479,2.174,2.243a13.421,13.421,0,0,0-.367,3.287,1.537,1.537,0,0,1-.82,1.58,14.641,14.641,0,0,1-4.534,1.784,33.39,33.39,0,0,0-6.86,2.2,6.7,6.7,0,0,0-3.155,3.115c-.152.324-.427.68-.224,1.027.229.39.651.158,1,.132a15.393,15.393,0,0,0,5.851-1.7c2.4-1.187,4.778-2.444,7.514-2.719,1.853-.186,2.2.1,2.008,1.953a4.37,4.37,0,0,1-.815,2.171A6.72,6.72,0,0,1,12.7,964.8c-2.051.86-4.141,1.623-6.175,2.512a6.062,6.062,0,0,0-3.089,2.808c-.27.534-.688,1.231-.43,1.663.338.574,1.147.287,1.767.25a9.667,9.667,0,0,0,3.026-.783c1.3-.542,2.581-1.147,3.886-1.658a5.489,5.489,0,0,1,3.984-.178c.82.287,1.213.637.8,1.578a12.968,12.968,0,0,0-.66,2.24,26.878,26.878,0,0,0-.419,12.7c.287,1.179.7,1.124,1.471.393a10.763,10.763,0,0,0,2.868-5.231c.978-3.556,1.044-7.279,1.907-10.861.6-2.5.728-2.616,3.227-2.785,1.047-.072,2.094-.089,3.126-.227a2.176,2.176,0,0,0,2.165-2.091c.057-1.308-.837-1.864-1.95-2.1a14.874,14.874,0,0,0-1.755-.178,9.666,9.666,0,0,1-2.028-.2c-1.684-.522-1.91-1.351-.637-2.6a7.615,7.615,0,0,1,2.8-1.652c1.434-.534,2.9-1.05,4.348-1.583.33-.123.68-.2.8-.642A2.977,2.977,0,0,0,29.127,952.587Zm-7.609-2.756c-.574.123-.706-.189-.7-.772a2.345,2.345,0,0,1,2.954-2.2c.531.178.4.553.344.892A2.572,2.572,0,0,1,21.519,949.831Z" transform="translate(-0.048 -922.904)" fill="#642c3c"/>
        <path id="路径_14" data-name="路径 14" d="M405.647,998.653c-.178-.04-.361-.057-.539-.089a55.6,55.6,0,0,0-9.109-.539c-.84,0-1.179-.287-1.147-1.21a9.287,9.287,0,0,1,1.543-4.365,7.876,7.876,0,0,0,.625-6.516,20.049,20.049,0,0,0-1.75-3.576c-1.041-1.876-1.85-3.8-1.357-6.023a2.337,2.337,0,0,0-.106-1.081c-.353-1.308-1.219-1.6-2.295-.809A58.446,58.446,0,0,0,383.1,982.3c-4.245,4.683-8.1,9.72-12.562,14.2a3.412,3.412,0,0,1-1.474,1.147,3.365,3.365,0,0,1,.947-3.585c.837-.846,1.721-1.652,2.567-2.481a3.744,3.744,0,0,0,1.124-1.7c.2-.76.39-1.589-.367-2.148a1.893,1.893,0,0,0-2.294-.1c-.456.287-.878.66-1.359.915-1.253.668-1.486.5-1.586-.906a6.96,6.96,0,0,1,2.719-6.292c.815-.657,1.686-1.245,2.55-1.844a14.761,14.761,0,0,0,2.868-2.53,1.529,1.529,0,0,0-.109-2.131c-.511-.617-.648-1.661-1.884-1.4-2.489.522-5.016.86-7.5,1.394-2.435.516-4.9,1-6.926,2.656a4.008,4.008,0,0,0-1.46,3.8c.1.915.462,1.348,1.5,1.176a20.313,20.313,0,0,0,5.69-2.211,7.583,7.583,0,0,1,3.645-.967c.766.026.843.339.462.941a10.082,10.082,0,0,1-2.458,2.581c-3.4,2.581-3.981,6.175-3.539,10.127.321,2.9,1.434,5.578,2.369,8.429-1.486-.106-2.75.493-4.107.623a1.652,1.652,0,0,1-1.933-1.3,9,9,0,0,1-.2-4.1c.218-1.595.5-3.181.657-4.784.123-1.311-.356-1.758-1.663-1.684A3.648,3.648,0,0,0,355.6,992.4a12.48,12.48,0,0,0-.989,7,10.508,10.508,0,0,0,2.145,5.854c1.167,1.356,2.119,1.454,3.671.668,4.337-2.2,8.684-4.365,11.4-8.745a6.307,6.307,0,0,1,1.471-1.434,7.587,7.587,0,0,1,2.7-1.618,20.576,20.576,0,0,1,.129,6.112c-.287,1.6.376,2.423,1.721,3.1,2.607,1.319,5.162.786,7.663-.135a6.617,6.617,0,0,1,5.773.215c5.369,2.55,10.982,1.772,16.463-.132a.882.882,0,0,0,.631-.926A3.464,3.464,0,0,0,405.647,998.653Zm-24.4,2.616a8.711,8.711,0,0,0-2.386.393c-.533.27-.574-.229-.711-.536q-.43-1-.838-2.008c-.143-.359,1.147-1.434,1.649-1.391.645.046,3.186,1.95,3.287,2.533C382.379,1001.013,381.725,1001.162,381.243,1001.268Zm8.1-8.071c-.691,3.012-1.457,3.273-3.915,1.391a12.994,12.994,0,0,1-1.245-1.07c-1.721-1.661-3.442-3.227-6.077-2.581,1.084-.737,2.171-1.465,3.244-2.208a3.906,3.906,0,0,0,1.672-1.95c.427-1.514,1.457-1.792,2.765-1.772a3.35,3.35,0,0,1,3.155,2.008A8.991,8.991,0,0,1,389.343,993.2Z" transform="translate(-252.838 -958.917)" fill="#642c3c"/>
        <path id="路径_15" data-name="路径 15" d="M1032.3,1035.138c-.482-.069-1.322.232-1.6-.456-.224-.574.2-1.236.591-1.764.08-.112.175-.212.25-.327a4.439,4.439,0,0,0-.029-4.322c-.86-1.179-2.051-.978-3.227-.68-.964.25-1.916.548-2.885.789-1.9.479-3.794,1.064-5.736.2-.359-.161-.588-.12-.726.287a21.823,21.823,0,0,0-.794,2.34c-.146.728-.485,1.675.181,2.191s1.56.143,2.326-.206a20.576,20.576,0,0,0,2.756-2.008,3.414,3.414,0,0,1,3.338-.55c.356.135.777.212.574.714-.878,2.254-1.451,4.658-3.106,6.542a2.079,2.079,0,0,1-2.008.838,4.744,4.744,0,0,0-3.49.886c-.981.7-2.294,1.669-1.913,2.762.407,1.179,2.008,1.147,3.27,1.047,1.629-.12,3.02-.952,4.506-1.506a6.585,6.585,0,0,1,3.172-.614c.533.069.777.258.634.906a18.726,18.726,0,0,1-3.252,7.517,2.135,2.135,0,0,1-2.524,1.044,3.784,3.784,0,0,0-2.148.161c-1.6.43-2.008,1.62-1.041,2.968a13.211,13.211,0,0,1,.74,1.147,1.476,1.476,0,0,0,2.042.725,13.531,13.531,0,0,0,6.763-4.9,22.551,22.551,0,0,0,3.855-10.052c.155-1.035.393-1.532,1.626-1.147s2.811,1.187,3.479-.95c.02-.072.135-.12.21-.169,1.239-.734,1.032-1.658.355-2.667a2.863,2.863,0,0,0-3.112-1.2,14.767,14.767,0,0,1-3.089.433" transform="translate(-725.145 -997.402)" fill="#642c3c"/>
        <path id="路径_16" data-name="路径 16" d="M1021.072,948.472c-.41-1.058-1.01-1.772-2.352-1.511-1.242.241-2.538.207-3.8.373-7.8,1.024-15.774,1.337-22.927,5.229a1.9,1.9,0,0,1-2.5-.364c-.651-.746.175-1.334.327-1.993a1.306,1.306,0,0,1,.215-.347c1.213-1.9,3.155-3.014,4.732-4.546.376-.367.545.046.774.207,1.692,1.176,2.791,1.184,4.491.026a29.565,29.565,0,0,0,3.261-2.934c.382-.353.668-.611,1.291-.37a5.9,5.9,0,0,0,6-1.2c3.706-2.922,5.355-6.955,5.851-11.564.066-.6-.267-.8-.7-1.021a5.174,5.174,0,0,0-4.844.169,30.245,30.245,0,0,1-4.164,2.008,1.33,1.33,0,0,1-1.824-.686c-.826-1.434-1.667-1.552-2.923-.49a7.77,7.77,0,0,0-2.34,3.969c-.574,2.008-1.053,4.084-1.663,6.1a6.543,6.543,0,0,1-3.3,4.282,23.038,23.038,0,0,1,2.312-6.192,9.527,9.527,0,0,0,1-4.781c-.106-1.282-.677-1.77-1.922-1.563a5.6,5.6,0,0,0-2.615,1.394c-.645.528-1.434,1.233-2.171.955-1.434-.536-1.873.4-2.441,1.273a11.114,11.114,0,0,0-1.265,2.73,36.137,36.137,0,0,0-1.345,8.977c-.046.68.106,1.434-.33,2.008-2.656,3.485-3.648,7.646-4.8,11.759a3.737,3.737,0,0,0,.573,3.545c1.064,1.474,2.214,1.554,3.209.029a6.972,6.972,0,0,0,.846-2.008c.324-1.19.668-2.383,1.081-3.548a2.215,2.215,0,0,1,1.434-1.523c8.157-2.561,16.371-4.833,24.9-5.736a1.2,1.2,0,0,1,1.514.935c.169.516.287,1.07.837,1.357a4.769,4.769,0,0,0,4.5-.783A3.958,3.958,0,0,0,1021.072,948.472Zm-17.561-9.011a5.43,5.43,0,0,1,2.581-4.876c1.345-.832,2.791-1.508,4.19-2.257.287-.152.525-.321.746.146,1.01,2.162-.62,7.018-2.75,8.091a3.375,3.375,0,0,1-.688.175,2.172,2.172,0,0,1,.884-2.558c.287-.2,1.147,0,.8-.694s-.393-1.818-1.629-1.7a2.386,2.386,0,0,0-2.059,1.741,5.959,5.959,0,0,1-1.147,2.312c-.2.2-.425.4-.711.316-.355-.1-.229-.444-.227-.694Z" transform="translate(-699.579 -926.49)" fill="#642c3c"/>
        <path id="路径_17" data-name="路径 17" d="M5.735,1177.335h5.478v.924H4.68V1168h6.356v.941h-5.3v3.519H10.7v.923H5.735Z" transform="translate(-3.351 -1097.706)" fill="#642c3c"/>
        <path id="路径_18" data-name="路径 18" d="M37.347,1182.052a1.651,1.651,0,0,0-.456-1.3,1.886,1.886,0,0,0-1.348-.439,3.183,3.183,0,0,0-1.147.213,2.63,2.63,0,0,0-.892.573l-.542-.639a3.3,3.3,0,0,1,1.119-.7,4.272,4.272,0,0,1,1.557-.287,3.039,3.039,0,0,1,1.021.16,2.234,2.234,0,0,1,.843.456,1.9,1.9,0,0,1,.574.76,2.787,2.787,0,0,1,.2,1.087v2.968c0,.258.017.534.032.809a3.873,3.873,0,0,0,.1.714h-.892a4.641,4.641,0,0,1-.063-.533,3.247,3.247,0,0,1-.034-.574h-.032a2.843,2.843,0,0,1-1.053.973,2.946,2.946,0,0,1-1.411.307,3.555,3.555,0,0,1-.806-.094,2.206,2.206,0,0,1-.763-.358,1.947,1.947,0,0,1-.574-.631,2.005,2.005,0,0,1-.227-.972,1.852,1.852,0,0,1,.4-1.233,2.293,2.293,0,0,1,1.07-.683,5.232,5.232,0,0,1,1.526-.286c.574-.049,1.167-.066,1.784-.066Zm-.287,1c-.4,0-.812.017-1.216.049a4.762,4.762,0,0,0-1.119.212,2.064,2.064,0,0,0-.812.439.947.947,0,0,0-.324.76,1.394,1.394,0,0,0,.129.617,1.215,1.215,0,0,0,.373.39,1.532,1.532,0,0,0,.519.227,3.524,3.524,0,0,0,.574.066,2.261,2.261,0,0,0,.923-.181,1.912,1.912,0,0,0,.683-.5,1.95,1.95,0,0,0,.422-.714,2.508,2.508,0,0,0,.146-.861v-.488Z" transform="translate(-23.224 -1105.892)" fill="#642c3c"/>
        <path id="路径_19" data-name="路径 19" d="M63.092,1181.261a1.671,1.671,0,0,0-.665-.683,1.878,1.878,0,0,0-1.007-.287,2.019,2.019,0,0,0-.519.066,1.4,1.4,0,0,0-.453.178.922.922,0,0,0-.324.341.754.754,0,0,0-.129.47.8.8,0,0,0,.39.729,3.443,3.443,0,0,0,1.23.439,4.11,4.11,0,0,1,1.767.711,1.529,1.529,0,0,1,.574,1.265,1.971,1.971,0,0,1-.227.975,1.918,1.918,0,0,1-.574.662,2.354,2.354,0,0,1-.826.358,4.464,4.464,0,0,1-.923.112,3.707,3.707,0,0,1-1.491-.324,2.805,2.805,0,0,1-1.184-1l.777-.573a2.151,2.151,0,0,0,.78.746,2.083,2.083,0,0,0,1.119.307,2.422,2.422,0,0,0,.6-.063,1.274,1.274,0,0,0,.5-.2,1.3,1.3,0,0,0,.359-.373,1.164,1.164,0,0,0,.129-.551.875.875,0,0,0-.519-.812,7.245,7.245,0,0,0-1.477-.5,5.341,5.341,0,0,1-.648-.181,1.91,1.91,0,0,1-.631-.324,1.631,1.631,0,0,1-.488-.519,1.7,1.7,0,0,1-.178-.795,1.873,1.873,0,0,1,.2-.892,1.837,1.837,0,0,1,.551-.614,2.474,2.474,0,0,1,.777-.359,4.191,4.191,0,0,1,.892-.112,3.166,3.166,0,0,1,1.38.324,2.23,2.23,0,0,1,1,.892Z" transform="translate(-41.9 -1105.879)" fill="#642c3c"/>
        <path id="路径_20" data-name="路径 20" d="M83.734,1176.189H81.821v3.958a2.249,2.249,0,0,0,.06.631,1.128,1.128,0,0,0,.212.387.908.908,0,0,0,.324.178,1.108,1.108,0,0,0,.4.066,2.082,2.082,0,0,0,.439-.066,1.9,1.9,0,0,0,.422-.161l.049.861a3.1,3.1,0,0,1-.551.143,3.335,3.335,0,0,1-.617.049,2.548,2.548,0,0,1-.574-.063,1.5,1.5,0,0,1-.551-.287,1.53,1.53,0,0,1-.439-.554,2.085,2.085,0,0,1-.161-.906v-4.236H79.42v-.826h1.411v-1.913h.989v1.913h1.913Z" transform="translate(-56.656 -1101.592)" fill="#642c3c"/>
        <path id="路径_21" data-name="路径 21" d="M119.881,1175.955a4.651,4.651,0,0,1-.631.746,4.45,4.45,0,0,1-.86.617,5.322,5.322,0,0,1-1.07.422,5.248,5.248,0,0,1-1.282.146,5.422,5.422,0,0,1-2.14-.407,4.926,4.926,0,0,1-2.8-2.822,5.538,5.538,0,0,1-.4-2.154,5.713,5.713,0,0,1,.4-2.157,4.963,4.963,0,0,1,1.147-1.7,5.023,5.023,0,0,1,1.686-1.147,5.7,5.7,0,0,1,2.122-.4,5.086,5.086,0,0,1,1.1.129,4.016,4.016,0,0,1,1.021.324,3.951,3.951,0,0,1,.875.519,3.087,3.087,0,0,1,.648.665l-.86.648a2.522,2.522,0,0,0-.439-.5,3.014,3.014,0,0,0-.634-.439,4.187,4.187,0,0,0-.777-.287,3.481,3.481,0,0,0-.924-.112,4.164,4.164,0,0,0-1.784.356,4.058,4.058,0,0,0-2.188,2.4,4.931,4.931,0,0,0-.287,1.7,4.613,4.613,0,0,0,.307,1.7,4.38,4.38,0,0,0,.843,1.434,4.075,4.075,0,0,0,1.331.972,4.5,4.5,0,0,0,1.784.355,4.329,4.329,0,0,0,1.686-.355,3.263,3.263,0,0,0,1.328-1.167Z" transform="translate(-78.956 -1097.057)" fill="#642c3c"/>
        <path id="路径_22" data-name="路径 22" d="M149.907,1170.856a2.078,2.078,0,0,1,.924-.941,2.665,2.665,0,0,1,1.362-.355,2.389,2.389,0,0,1,1.93.76,3.071,3.071,0,0,1,.648,2.045v4.15h-.99v-3.746a5.9,5.9,0,0,0-.08-.972,2.066,2.066,0,0,0-.31-.746,1.338,1.338,0,0,0-.551-.488,2.1,2.1,0,0,0-.892-.178,1.779,1.779,0,0,0-.763.163,1.588,1.588,0,0,0-.662.485,2.516,2.516,0,0,0-.47.829,3.62,3.62,0,0,0-.163,1.182v3.47H148.9V1165.57h.989v5.286Z" transform="translate(-106.209 -1095.972)" fill="#642c3c"/>
        <path id="路径_23" data-name="路径 23" d="M179,1169.266a.628.628,0,0,1-.212.5.682.682,0,0,1-.955,0,.628.628,0,0,1-.212-.5.657.657,0,0,1,.212-.5.688.688,0,0,1,.955,0A.657.657,0,0,1,179,1169.266Zm-.2,9.387h-.989v-6.777h.989Z" transform="translate(-126.69 -1098.111)" fill="#642c3c"/>
        <path id="路径_24" data-name="路径 24" d="M191.661,1179.7c.017.178.034.39.049.6s.017.4.017.551h.032a2.139,2.139,0,0,1,.941-.955,2.727,2.727,0,0,1,1.362-.373,2.441,2.441,0,0,1,1.945.76,3.156,3.156,0,0,1,.651,2.045v4.15h-.989v-3.746a4.61,4.61,0,0,0-.1-.972,1.786,1.786,0,0,0-.287-.746,1.383,1.383,0,0,0-.574-.487,2.043,2.043,0,0,0-.892-.178,1.835,1.835,0,0,0-.763.164,1.66,1.66,0,0,0-.648.485,2.3,2.3,0,0,0-.47.829,3.675,3.675,0,0,0-.178,1.182v3.47h-.972v-5.286c0-.178-.017-.422-.017-.714s-.032-.551-.049-.777Z" transform="translate(-136.035 -1105.922)" fill="#642c3c"/>
        <path id="路径_25" data-name="路径 25" d="M223.191,1182.03a1.661,1.661,0,0,0-.453-1.3,1.9,1.9,0,0,0-1.348-.439,3.151,3.151,0,0,0-1.147.212,2.6,2.6,0,0,0-.892.574l-.551-.648a3.262,3.262,0,0,1,1.118-.7,4.236,4.236,0,0,1,1.554-.287,3.053,3.053,0,0,1,1.024.161,2.226,2.226,0,0,1,.843.456,1.919,1.919,0,0,1,.574.76,2.736,2.736,0,0,1,.2,1.087v2.969c0,.258.017.533.034.809a3.642,3.642,0,0,0,.1.714h-.892a4.584,4.584,0,0,1-.066-.534,3.54,3.54,0,0,1-.032-.573h-.034a2.818,2.818,0,0,1-1.053.972,2.946,2.946,0,0,1-1.411.307,3.563,3.563,0,0,1-.794-.112,2.189,2.189,0,0,1-.763-.358,1.944,1.944,0,0,1-.574-.631,2.008,2.008,0,0,1-.227-.972,1.838,1.838,0,0,1,.407-1.233,2.256,2.256,0,0,1,1.07-.683,5.2,5.2,0,0,1,1.523-.287c.574-.049,1.167-.066,1.784-.066Zm-.287,1c-.4,0-.809.017-1.216.049a4.793,4.793,0,0,0-1.118.212,2.067,2.067,0,0,0-.812.439.946.946,0,0,0-.33.749,1.352,1.352,0,0,0,.132.616,1.213,1.213,0,0,0,.373.39,1.5,1.5,0,0,0,.519.227,3.432,3.432,0,0,0,.574.066,2.3,2.3,0,0,0,.926-.18,1.928,1.928,0,0,0,.68-.5,1.95,1.95,0,0,0,.422-.714,2.507,2.507,0,0,0,.146-.861v-.476Z" transform="translate(-155.772 -1105.871)" fill="#642c3c"/>
        <path id="路径_26" data-name="路径 26" d="M263.673,1178.52a4.046,4.046,0,0,1-1.9-.39,3.427,3.427,0,0,1-1.167-1.021,3.772,3.772,0,0,1-.617-1.313,7.034,7.034,0,0,1-.161-1.362V1168h1.035v6.31a5.077,5.077,0,0,0,.146,1.216,3.2,3.2,0,0,0,.47,1.038,2.4,2.4,0,0,0,.878.731,3.117,3.117,0,0,0,2.624,0,2.217,2.217,0,0,0,.86-.731,2.868,2.868,0,0,0,.47-1.038,5.078,5.078,0,0,0,.161-1.216V1168h1.053v6.439a5.99,5.99,0,0,1-.178,1.362,3.439,3.439,0,0,1-.6,1.313,3.591,3.591,0,0,1-1.167,1.021A4.122,4.122,0,0,1,263.673,1178.52Z" transform="translate(-185.324 -1097.706)" fill="#642c3c"/>
        <path id="路径_27" data-name="路径 27" d="M296.434,1179.7c.017.178.031.39.049.6s.017.4.017.551h.032a2.139,2.139,0,0,1,.941-.955,2.727,2.727,0,0,1,1.362-.373,2.445,2.445,0,0,1,1.944.76,3.155,3.155,0,0,1,.648,2.045v4.15h-.99v-3.746a4.426,4.426,0,0,0-.1-.972,1.785,1.785,0,0,0-.287-.746,1.382,1.382,0,0,0-.574-.487,2.054,2.054,0,0,0-.892-.178,1.83,1.83,0,0,0-.763.164,1.64,1.64,0,0,0-.648.485,2.3,2.3,0,0,0-.47.829,3.6,3.6,0,0,0-.178,1.182v3.47h-.972v-5.286c0-.178-.017-.422-.017-.714s-.032-.551-.049-.777Z" transform="translate(-210.756 -1105.922)" fill="#642c3c"/>
        <path id="路径_28" data-name="路径 28" d="M325.784,1169.267a.639.639,0,0,1-.227.5.682.682,0,0,1-.47.195.71.71,0,0,1-.485-.195.677.677,0,0,1-.212-.5.691.691,0,0,1,.7-.7.678.678,0,0,1,.47.192A.67.67,0,0,1,325.784,1169.267Zm-.209,9.387H324.6v-6.777h.972Z" transform="translate(-231.367 -1098.112)" fill="#642c3c"/>
        <path id="路径_29" data-name="路径 29" d="M337.8,1186.917h-1.087l-2.773-6.777h1.1l2.206,5.736h.032l2.206-5.736h1.067Z" transform="translate(-238.179 -1106.364)" fill="#642c3c"/>
        <path id="路径_30" data-name="路径 30" d="M367.294,1182.783v.227c0,.08-.017.163-.017.244h-5.627a2.643,2.643,0,0,0,.212.958,2.1,2.1,0,0,0,.519.777,2.539,2.539,0,0,0,.777.533,2.426,2.426,0,0,0,.972.2,2.361,2.361,0,0,0,1.331-.355,2.7,2.7,0,0,0,.843-.812l.746.574a3.729,3.729,0,0,1-1.345,1.1,3.67,3.67,0,0,1-1.575.338,3.579,3.579,0,0,1-1.394-.286,3.136,3.136,0,0,1-1.119-.746,3.413,3.413,0,0,1-.731-1.147,3.6,3.6,0,0,1-.258-1.411,3.729,3.729,0,0,1,.258-1.434,3.293,3.293,0,0,1,.731-1.118,3.15,3.15,0,0,1,1.087-.745,3.329,3.329,0,0,1,1.345-.287,3.442,3.442,0,0,1,1.394.287,3.108,3.108,0,0,1,1.027.749,3.151,3.151,0,0,1,.617,1.07A4.273,4.273,0,0,1,367.294,1182.783Zm-1.007-.307a2.4,2.4,0,0,0-.617-1.589,2.066,2.066,0,0,0-1.62-.634,2.49,2.49,0,0,0-.924.178,2.548,2.548,0,0,0-.731.5,2.166,2.166,0,0,0-.5.7,2.226,2.226,0,0,0-.227.843Z" transform="translate(-257.212 -1105.829)" fill="#642c3c"/>
        <path id="路径_31" data-name="路径 31" d="M391.082,1180.46c0-.287-.017-.551-.031-.777h.938c.017.178.034.39.034.6s.014.4.014.551h.034a2.368,2.368,0,0,1,.875-.955,2.336,2.336,0,0,1,1.3-.373,2.526,2.526,0,0,1,.341,0,2.287,2.287,0,0,1,.307.066l-.129.941a.807.807,0,0,0-.287-.066,3.528,3.528,0,0,0-.4-.032,1.972,1.972,0,0,0-.746.146,1.724,1.724,0,0,0-.631.453,2.471,2.471,0,0,0-.439.795,3.529,3.529,0,0,0-.164,1.167v3.47H391.1v-5.286C391.1,1181,391.1,1180.753,391.082,1180.46Z" transform="translate(-278.909 -1105.907)" fill="#642c3c"/>
        <path id="路径_32" data-name="路径 32" d="M411.152,1181.261a1.654,1.654,0,0,0-.665-.683,1.865,1.865,0,0,0-1-.287,1.981,1.981,0,0,0-.519.066,1.381,1.381,0,0,0-.453.178.956.956,0,0,0-.327.341.774.774,0,0,0-.129.47.8.8,0,0,0,.39.729,3.445,3.445,0,0,0,1.233.439,4.113,4.113,0,0,1,1.767.711,1.526,1.526,0,0,1,.574,1.265,1.971,1.971,0,0,1-.227.975,1.94,1.94,0,0,1-.574.662,2.376,2.376,0,0,1-.829.359,4.463,4.463,0,0,1-.924.112,3.727,3.727,0,0,1-1.491-.324,2.825,2.825,0,0,1-1.185-1l.78-.573a2.142,2.142,0,0,0,.777.746,2.1,2.1,0,0,0,1.119.307,2.421,2.421,0,0,0,.6-.063,1.288,1.288,0,0,0,.5-.2,1.336,1.336,0,0,0,.356-.373,1.166,1.166,0,0,0,.129-.551.875.875,0,0,0-.519-.812,7.22,7.22,0,0,0-1.474-.5,5.182,5.182,0,0,1-.648-.181,1.9,1.9,0,0,1-.634-.324,1.622,1.622,0,0,1-.485-.519,1.667,1.667,0,0,1-.181-.795,1.873,1.873,0,0,1,.2-.892,1.838,1.838,0,0,1,.551-.614,2.49,2.49,0,0,1,.78-.359,4.16,4.16,0,0,1,.892-.112,3.153,3.153,0,0,1,1.377.324,2.239,2.239,0,0,1,1.007.892Z" transform="translate(-290.135 -1105.879)" fill="#642c3c"/>
        <path id="路径_33" data-name="路径 33" d="M432.574,1169.267a.626.626,0,0,1-.209.5.723.723,0,0,1-.488.195.713.713,0,0,1-.47-.195.625.625,0,0,1-.209-.5.654.654,0,0,1,.209-.5.711.711,0,0,1,.47-.192.719.719,0,0,1,.488.192A.654.654,0,0,1,432.574,1169.267Zm-.2,9.387h-.989v-6.777h.989Z" transform="translate(-307.542 -1098.112)" fill="#642c3c"/>
        <path id="路径_34" data-name="路径 34" d="M444.431,1176.189h-1.913v3.958a2.191,2.191,0,0,0,.08.617.9.9,0,0,0,.212.387.7.7,0,0,0,.324.178,1.113,1.113,0,0,0,.4.066,1.932,1.932,0,0,0,.422-.066,2.449,2.449,0,0,0,.439-.16l.032.86a3.316,3.316,0,0,1-.533.143,3.587,3.587,0,0,1-.617.049,2.376,2.376,0,0,1-.574-.063,1.556,1.556,0,0,1-.573-.287,1.493,1.493,0,0,1-.422-.553,2.069,2.069,0,0,1-.178-.906v-4.222H440.14v-.826h1.394v-1.913h.99v1.913h1.913Z" transform="translate(-313.92 -1101.592)" fill="#642c3c"/>
        <path id="路径_35" data-name="路径 35" d="M460.187,1185.836h.017l2.108-5.736h1.07l-3.37,8.541a3.728,3.728,0,0,1-.777,1.248,1.79,1.79,0,0,1-1.362.47,4.089,4.089,0,0,1-.86-.08l.095-.892a2.729,2.729,0,0,0,.731.112,1.072,1.072,0,0,0,.794-.307,2.864,2.864,0,0,0,.5-.892l.551-1.434-2.885-6.76h1.087Z" transform="translate(-325.802 -1106.335)" fill="#642c3c"/>
        <path id="路径_36" data-name="路径 36" d="M503.24,1183.085a3.6,3.6,0,0,1-.287,1.411,3.236,3.236,0,0,1-.746,1.147,3.386,3.386,0,0,1-1.147.746,3.994,3.994,0,0,1-1.477.287,3.828,3.828,0,0,1-1.434-.287,3.44,3.44,0,0,1-1.147-.746,3.4,3.4,0,0,1-.746-1.147,3.6,3.6,0,0,1-.258-1.411,3.731,3.731,0,0,1,.261-1.434,3.507,3.507,0,0,1,.746-1.119,3.446,3.446,0,0,1,1.147-.746,3.83,3.83,0,0,1,1.434-.287,3.994,3.994,0,0,1,1.477.287,3.386,3.386,0,0,1,1.147.746,3.329,3.329,0,0,1,.746,1.119A3.749,3.749,0,0,1,503.24,1183.085Zm-1.055,0a2.982,2.982,0,0,0-.178-1.07,2.425,2.425,0,0,0-.519-.86,2.1,2.1,0,0,0-.812-.6,2.759,2.759,0,0,0-2.122,0,2.257,2.257,0,0,0-.812.6,2.756,2.756,0,0,0-.519.86,3.313,3.313,0,0,0,0,2.142,2.755,2.755,0,0,0,.519.861,2.476,2.476,0,0,0,.812.574,2.8,2.8,0,0,0,2.122,0,2.3,2.3,0,0,0,.812-.574,2.423,2.423,0,0,0,.519-.861A2.984,2.984,0,0,0,502.185,1183.085Z" transform="translate(-353.758 -1105.907)" fill="#642c3c"/>
        <path id="路径_37" data-name="路径 37" d="M528.622,1170.128h-1.589v5.951h-.99v-5.951H524.61v-.826h1.434v-1.865a2.729,2.729,0,0,1,.574-1.815,2.154,2.154,0,0,1,1.721-.665,4.047,4.047,0,0,1,.407,0,2.75,2.75,0,0,1,.4.083l-.178.875a2,2,0,0,0-.31-.08,2.3,2.3,0,0,0-.373-.035,1.38,1.38,0,0,0-.631.132.861.861,0,0,0-.39.373,1.585,1.585,0,0,0-.2.574,4.544,4.544,0,0,0-.049.679v1.735h1.589Z" transform="translate(-374.164 -1095.532)" fill="#642c3c"/>
        <path id="路径_38" data-name="路径 38" d="M557.526,1168h2.9a5.36,5.36,0,0,1,1.411.181,3.136,3.136,0,0,1,1.1.5,2.274,2.274,0,0,1,.7.861,3.122,3.122,0,0,1,0,2.418,2.44,2.44,0,0,1-.714.861,3.126,3.126,0,0,1-1.1.5,5.624,5.624,0,0,1-1.434.178h-1.816v4.767H557.52Zm1.055,4.623h1.767a3.06,3.06,0,0,0,1.864-.488,1.641,1.641,0,0,0,.634-1.394,1.529,1.529,0,0,0-.665-1.394,3.293,3.293,0,0,0-1.833-.439h-1.767Z" transform="translate(-397.635 -1097.705)" fill="#642c3c"/>
        <path id="路径_39" data-name="路径 39" d="M588.483,1183.114a3.6,3.6,0,0,1-.287,1.411,3.2,3.2,0,0,1-.746,1.147,3.356,3.356,0,0,1-1.147.746,3.987,3.987,0,0,1-1.474.287,3.8,3.8,0,0,1-1.434-.287,3.311,3.311,0,0,1-1.9-1.881,3.6,3.6,0,0,1-.258-1.412,3.726,3.726,0,0,1,.258-1.434,3.548,3.548,0,0,1,.746-1.118,3.443,3.443,0,0,1,1.147-.746,3.817,3.817,0,0,1,1.434-.287,3.987,3.987,0,0,1,1.474.287,3.356,3.356,0,0,1,1.147.746,3.279,3.279,0,0,1,.746,1.118A3.745,3.745,0,0,1,588.483,1183.114Zm-1.053,0a2.984,2.984,0,0,0-.178-1.07,2.466,2.466,0,0,0-.519-.86,2.135,2.135,0,0,0-.812-.6,2.764,2.764,0,0,0-2.125,0,2.244,2.244,0,0,0-.809.6,2.7,2.7,0,0,0-.519.86,3.316,3.316,0,0,0,0,2.142,2.7,2.7,0,0,0,.519.861,2.664,2.664,0,0,0,2.934.573,2.331,2.331,0,0,0,.812-.573,2.467,2.467,0,0,0,.519-.86A2.989,2.989,0,0,0,587.43,1183.114Z" transform="translate(-414.55 -1105.936)" fill="#642c3c"/>
        <path id="路径_40" data-name="路径 40" d="M614.978,1176.555H614V1165.61h.987Z" transform="translate(-437.916 -1096.001)" fill="#642c3c"/>
        <path id="路径_41" data-name="路径 41" d="M627.362,1169.267a.628.628,0,0,1-.212.5.683.683,0,0,1-.955,0,.627.627,0,0,1-.2-.5.657.657,0,0,1,.212-.5.706.706,0,0,1,.47-.192.713.713,0,0,1,.485.192A.656.656,0,0,1,627.362,1169.267Zm-.2,9.387h-.99v-6.777h.99Z" transform="translate(-446.471 -1098.112)" fill="#642c3c"/>
        <path id="路径_42" data-name="路径 42" d="M639.186,1176.189h-1.913v3.958a2.184,2.184,0,0,0,.08.617.892.892,0,0,0,.209.387.712.712,0,0,0,.324.178,1.153,1.153,0,0,0,.407.066,1.933,1.933,0,0,0,.422-.066,2.423,2.423,0,0,0,.436-.16l.034.86a3.239,3.239,0,0,1-1.153.192,2.338,2.338,0,0,1-.574-.063,1.537,1.537,0,0,1-.574-.287,1.469,1.469,0,0,1-.422-.553,2.028,2.028,0,0,1-.178-.906v-4.222h-1.4v-.826h1.4v-1.913h.99v1.913h1.913Z" transform="translate(-452.815 -1101.592)" fill="#642c3c"/>
        <path id="路径_43" data-name="路径 43" d="M655.954,1169.267a.639.639,0,0,1-.226.5.684.684,0,0,1-.471.2.723.723,0,0,1-.487-.2.695.695,0,1,1,.958-1.007A.671.671,0,0,1,655.954,1169.267Zm-.209,9.387h-.975v-6.777h.975Z" transform="translate(-466.843 -1098.112)" fill="#642c3c"/>
        <path id="路径_44" data-name="路径 44" d="M671.507,1181.088a1.816,1.816,0,0,0-.714-.634,2.008,2.008,0,0,0-1.021-.258,2.58,2.58,0,0,0-1.07.212,2.49,2.49,0,0,0-.826.574,2.713,2.713,0,0,0-.519.861,3.343,3.343,0,0,0-.178,1.084,3.2,3.2,0,0,0,.178,1.073,2.7,2.7,0,0,0,.519.86,2.465,2.465,0,0,0,.809.574,2.58,2.58,0,0,0,1.072.209,2.25,2.25,0,0,0,1.1-.244,2.205,2.205,0,0,0,.746-.648l.731.553a3.114,3.114,0,0,1-2.581,1.182,4.014,4.014,0,0,1-1.494-.287,3.21,3.21,0,0,1-1.133-.746,3.416,3.416,0,0,1-.731-1.147,3.6,3.6,0,0,1-.258-1.411,3.726,3.726,0,0,1,.258-1.434,3.519,3.519,0,0,1,.731-1.119,3.214,3.214,0,0,1,1.133-.746,4.014,4.014,0,0,1,1.494-.287,3.548,3.548,0,0,1,1.377.287,3.017,3.017,0,0,1,1.147.878Z" transform="translate(-475.101 -1105.772)" fill="#642c3c"/>
        <path id="路径_45" data-name="路径 45" d="M696.072,1182.03a1.652,1.652,0,0,0-.456-1.3,1.888,1.888,0,0,0-1.345-.439,3.168,3.168,0,0,0-1.147.212,2.63,2.63,0,0,0-.892.573l-.551-.648a3.3,3.3,0,0,1,1.119-.7,4.235,4.235,0,0,1,1.557-.287,3.031,3.031,0,0,1,1.021.161,2.225,2.225,0,0,1,.843.456,1.9,1.9,0,0,1,.574.76,2.789,2.789,0,0,1,.195,1.087v2.969a7.068,7.068,0,0,0,.032.809,3.854,3.854,0,0,0,.1.714h-.892a5.326,5.326,0,0,1-.066-.534,3.506,3.506,0,0,1-.031-.573H696.1a2.844,2.844,0,0,1-1.055.972,2.929,2.929,0,0,1-1.411.307,3.594,3.594,0,0,1-.795-.112,2.174,2.174,0,0,1-.76-.358,1.942,1.942,0,0,1-.574-.631,2.006,2.006,0,0,1-.227-.972,1.851,1.851,0,0,1,.4-1.233,2.271,2.271,0,0,1,1.07-.683,5.229,5.229,0,0,1,1.526-.287c.574-.049,1.167-.066,1.784-.066Zm-.287,1c-.407,0-.812.017-1.216.049a4.743,4.743,0,0,0-1.119.212,2.052,2.052,0,0,0-.812.439.946.946,0,0,0-.324.76,1.391,1.391,0,0,0,.129.616,1.214,1.214,0,0,0,.373.39,1.529,1.529,0,0,0,.519.227,3.485,3.485,0,0,0,.574.066,2.267,2.267,0,0,0,.923-.181,1.963,1.963,0,0,0,.683-.5,1.986,1.986,0,0,0,.422-.714,2.5,2.5,0,0,0,.146-.86v-.488Z" transform="translate(-493.029 -1105.871)" fill="#642c3c"/>
        <path id="路径_46" data-name="路径 46" d="M721.129,1176.555h-.989V1165.61h.989Z" transform="translate(-513.615 -1096.001)" fill="#642c3c"/>
        <path id="路径_47" data-name="路径 47" d="M749.026,1168.969a2.56,2.56,0,0,0-.86-.746,2.688,2.688,0,0,0-1.247-.287,2.614,2.614,0,0,0-.78.112,2.234,2.234,0,0,0-.7.358,1.878,1.878,0,0,0-.519.6,1.782,1.782,0,0,0-.192.86,1.687,1.687,0,0,0,.178.809,1.75,1.75,0,0,0,.5.536,3.006,3.006,0,0,0,.714.373q.387.146.826.286c.356.112.714.241,1.07.373a3.438,3.438,0,0,1,.99.533,2.51,2.51,0,0,1,.7.829,2.429,2.429,0,0,1,.287,1.265,2.89,2.89,0,0,1-.287,1.328,2.81,2.81,0,0,1-.763.909,3,3,0,0,1-1.07.534,3.73,3.73,0,0,1-1.2.181,4.919,4.919,0,0,1-.941-.1,3.605,3.605,0,0,1-1.652-.763,3.471,3.471,0,0,1-.648-.665l.906-.666a2.822,2.822,0,0,0,.924.927,2.741,2.741,0,0,0,2.223.241,2.538,2.538,0,0,0,.729-.373,2.259,2.259,0,0,0,.536-.631,1.611,1.611,0,0,0,.212-.86,1.7,1.7,0,0,0-.212-.892,1.927,1.927,0,0,0-.574-.573,3.28,3.28,0,0,0-.795-.407c-.287-.1-.6-.209-.941-.324a10.319,10.319,0,0,1-.99-.356,3.212,3.212,0,0,1-.892-.519,2.6,2.6,0,0,1-.631-.811,2.569,2.569,0,0,1-.227-1.168,2.611,2.611,0,0,1,.287-1.279,2.7,2.7,0,0,1,.777-.892,3.381,3.381,0,0,1,1.053-.5,4.829,4.829,0,0,1,1.147-.161,3.973,3.973,0,0,1,1.784.373,2.906,2.906,0,0,1,1.119.86Z" transform="translate(-530.226 -1097.025)" fill="#642c3c"/>
        <path id="路径_48" data-name="路径 48" d="M777.539,1181.088a1.831,1.831,0,0,0-.711-.634,2.006,2.006,0,0,0-1.024-.258,2.575,2.575,0,0,0-1.07.212,2.493,2.493,0,0,0-.826.573,2.719,2.719,0,0,0-.519.861,3.346,3.346,0,0,0-.178,1.084,3.2,3.2,0,0,0,.178,1.073,2.7,2.7,0,0,0,.519.86,2.442,2.442,0,0,0,.812.573,2.564,2.564,0,0,0,1.07.209,2.248,2.248,0,0,0,1.1-.244,2.183,2.183,0,0,0,.746-.648l.731.553a3.115,3.115,0,0,1-2.581,1.182,4.015,4.015,0,0,1-1.491-.287,3.2,3.2,0,0,1-1.147-.746,3.417,3.417,0,0,1-.731-1.147,3.6,3.6,0,0,1-.258-1.411,3.725,3.725,0,0,1,.258-1.434,3.516,3.516,0,0,1,.731-1.118,3.194,3.194,0,0,1,1.147-.745,4.011,4.011,0,0,1,1.491-.287,3.534,3.534,0,0,1,1.377.287,3.014,3.014,0,0,1,1.147.877Z" transform="translate(-550.714 -1105.772)" fill="#642c3c"/>
        <path id="路径_49" data-name="路径 49" d="M799.894,1169.267a.639.639,0,0,1-.227.5.684.684,0,0,1-.47.2.723.723,0,0,1-.487-.2.695.695,0,1,1,.958-1.007A.671.671,0,0,1,799.894,1169.267Zm-.209,9.387h-.975v-6.777h.975Z" transform="translate(-569.501 -1098.112)" fill="#642c3c"/>
        <path id="路径_50" data-name="路径 50" d="M816.751,1182.783v.226c0,.081-.014.164-.014.244h-5.627a2.64,2.64,0,0,0,.212.958,2.117,2.117,0,0,0,.516.777,2.576,2.576,0,0,0,.78.533,2.438,2.438,0,0,0,.972.2,2.362,2.362,0,0,0,1.331-.356,2.691,2.691,0,0,0,.843-.811l.746.573a3.728,3.728,0,0,1-1.348,1.1,3.643,3.643,0,0,1-1.572.338,3.574,3.574,0,0,1-1.394-.286,3.125,3.125,0,0,1-1.118-.746,3.365,3.365,0,0,1-.731-1.147,3.6,3.6,0,0,1-.258-1.411,3.728,3.728,0,0,1,.258-1.434,3.25,3.25,0,0,1,.731-1.118,3.147,3.147,0,0,1,1.087-.745,3.323,3.323,0,0,1,1.345-.287,3.437,3.437,0,0,1,1.394.287,3.113,3.113,0,0,1,1.021.714,3.159,3.159,0,0,1,.617,1.07A4.281,4.281,0,0,1,816.751,1182.783Zm-1-.307a2.393,2.393,0,0,0-.617-1.589,2.065,2.065,0,0,0-1.62-.634,2.484,2.484,0,0,0-.924.178,2.547,2.547,0,0,0-.731.5,2.123,2.123,0,0,0-.5.7,2.226,2.226,0,0,0-.227.843Z" transform="translate(-577.766 -1105.829)" fill="#642c3c"/>
        <path id="路径_51" data-name="路径 51" d="M841.476,1179.7c.017.178.034.39.034.6s.014.4.014.551h.034a2.216,2.216,0,0,1,.941-.955,2.778,2.778,0,0,1,1.377-.373,2.389,2.389,0,0,1,1.93.76,3.058,3.058,0,0,1,.648,2.045v4.15h-.99v-3.746a5.912,5.912,0,0,0-.08-.972,2.418,2.418,0,0,0-.287-.746,1.5,1.5,0,0,0-.574-.487,2.1,2.1,0,0,0-.892-.178,1.757,1.757,0,0,0-.76.164,1.688,1.688,0,0,0-.665.485,2.263,2.263,0,0,0-.456.829,3.251,3.251,0,0,0-.178,1.182v3.47h-.99v-6c0-.292-.017-.551-.034-.777Z" transform="translate(-599.491 -1105.922)" fill="#642c3c"/>
        <path id="路径_52" data-name="路径 52" d="M873.626,1181.1a1.826,1.826,0,0,0-.711-.634,2.008,2.008,0,0,0-1.024-.258,2.586,2.586,0,0,0-1.07.212,2.492,2.492,0,0,0-.826.574,2.716,2.716,0,0,0-.519.86,3.341,3.341,0,0,0-.178,1.084,3.191,3.191,0,0,0,.178,1.072,2.707,2.707,0,0,0,.519.86,2.475,2.475,0,0,0,.812.574,2.57,2.57,0,0,0,1.07.209,2.256,2.256,0,0,0,1.1-.244,2.183,2.183,0,0,0,.745-.648l.731.553a3.35,3.35,0,0,1-1.055.86,3.388,3.388,0,0,1-1.523.324,4.013,4.013,0,0,1-1.491-.287,3.194,3.194,0,0,1-1.147-.746,3.409,3.409,0,0,1-.731-1.147,3.6,3.6,0,0,1-.258-1.411,3.732,3.732,0,0,1,.258-1.434,3.514,3.514,0,0,1,.731-1.119,3.2,3.2,0,0,1,1.147-.746,4.018,4.018,0,0,1,1.491-.287,3.543,3.543,0,0,1,1.377.287,3.016,3.016,0,0,1,1.147.878Z" transform="translate(-619.245 -1105.779)" fill="#642c3c"/>
        <path id="路径_53" data-name="路径 53" d="M900.2,1182.783v.226a1.169,1.169,0,0,1-.017.244h-5.61a2.366,2.366,0,0,0,.195.958,2.674,2.674,0,0,0,.519.777,2.448,2.448,0,0,0,.794.533,2.58,2.58,0,0,0,2.294-.161,2.76,2.76,0,0,0,.86-.812l.729.574a3.577,3.577,0,0,1-1.345,1.1,3.637,3.637,0,0,1-1.557.338,3.726,3.726,0,0,1-1.411-.287,3.214,3.214,0,0,1-1.1-.746,3.4,3.4,0,0,1-.729-1.147,3.548,3.548,0,0,1-.287-1.411,4.038,4.038,0,0,1,.258-1.434,3.512,3.512,0,0,1,.729-1.119,3.185,3.185,0,0,1,1.087-.745,3.4,3.4,0,0,1,1.345-.287,3.478,3.478,0,0,1,1.411.287,2.874,2.874,0,0,1,1.007.714,2.95,2.95,0,0,1,.617,1.07A3.809,3.809,0,0,1,900.2,1182.783Zm-.99-.307a2.483,2.483,0,0,0-.617-1.589,2.1,2.1,0,0,0-1.637-.634,2.409,2.409,0,0,0-.906.178,2.628,2.628,0,0,0-.746.5,2.356,2.356,0,0,0-.5.7,2.207,2.207,0,0,0-.212.843Z" transform="translate(-637.276 -1105.829)" fill="#642c3c"/>
        <path id="路径_54" data-name="路径 54" d="M939.8,1182.03a1.659,1.659,0,0,0-.47-1.3,1.892,1.892,0,0,0-1.345-.439,3.245,3.245,0,0,0-1.147.212,2.69,2.69,0,0,0-.86.574l-.551-.648a3.21,3.21,0,0,1,1.1-.7,4.374,4.374,0,0,1,1.557-.287,3.15,3.15,0,0,1,1.038.16,2.37,2.37,0,0,1,.843.456,2.034,2.034,0,0,1,.551.76,2.5,2.5,0,0,1,.209,1.087v2.968c0,.258.017.533.034.809a6.1,6.1,0,0,0,.081.714h-.875a4.488,4.488,0,0,1-.083-.534c0-.195-.032-.39-.032-.573h-.017a2.739,2.739,0,0,1-2.464,1.279,3.725,3.725,0,0,1-.811-.112,2.113,2.113,0,0,1-.746-.359,1.947,1.947,0,0,1-.574-.631,1.855,1.855,0,0,1-.227-.972,1.833,1.833,0,0,1,.39-1.234,2.439,2.439,0,0,1,1.07-.682A5.443,5.443,0,0,1,938,1182.3c.573-.049,1.181-.066,1.8-.066Zm-.287,1c-.4,0-.809.017-1.23.049a4.466,4.466,0,0,0-1.1.212,1.99,1.99,0,0,0-.826.439.993.993,0,0,0-.324.76,1.193,1.193,0,0,0,.146.617,1.062,1.062,0,0,0,.373.39,1.436,1.436,0,0,0,.5.227,3.685,3.685,0,0,0,.574.066,2.4,2.4,0,0,0,.926-.181,1.929,1.929,0,0,0,.68-.5,2.22,2.22,0,0,0,.422-.714,2.514,2.514,0,0,0,.146-.86v-.488Z" transform="translate(-666.86 -1105.87)" fill="#642c3c"/>
        <path id="路径_55" data-name="路径 55" d="M964.521,1179.7c.017.178.034.39.034.6v.551h.032a2.25,2.25,0,0,1,.941-.955,2.792,2.792,0,0,1,1.379-.373,2.39,2.39,0,0,1,1.93.76,3.072,3.072,0,0,1,.648,2.045v4.15H968.5v-3.746a5.9,5.9,0,0,0-.08-.972,2.412,2.412,0,0,0-.287-.746,1.5,1.5,0,0,0-.573-.487,2.1,2.1,0,0,0-.892-.178,1.781,1.781,0,0,0-.763.164,1.683,1.683,0,0,0-.663.485,2.268,2.268,0,0,0-.456.829A3.253,3.253,0,0,0,964.6,1183v3.47h-.989v-6c0-.292-.017-.551-.034-.777Z" transform="translate(-687.236 -1105.922)" fill="#642c3c"/>
        <path id="路径_56" data-name="路径 56" d="M997.47,1175.347a2.819,2.819,0,0,1-1.133.989,3.192,3.192,0,0,1-1.434.339,3.756,3.756,0,0,1-1.434-.287,3.515,3.515,0,0,1-1.1-.763,3.465,3.465,0,0,1-.711-1.119,4.2,4.2,0,0,1,0-2.819,3.358,3.358,0,0,1,1.816-1.881,3.761,3.761,0,0,1,1.434-.287,3.2,3.2,0,0,1,1.434.338,2.842,2.842,0,0,1,1.133,1.007h.034v-5.334h.987v10.945H997.5v-1.147Zm-5.031-2.226a3.35,3.35,0,0,0,.178,1.073,2.385,2.385,0,0,0,.5.86,2.432,2.432,0,0,0,.795.574,2.6,2.6,0,0,0,1.087.209,2.535,2.535,0,0,0,1.052-.209,2.865,2.865,0,0,0,.829-.574,2.662,2.662,0,0,0,.533-.86,2.816,2.816,0,0,0,.2-1.073,2.945,2.945,0,0,0-.2-1.084,2.748,2.748,0,0,0-.533-.86,2.864,2.864,0,0,0-.829-.574,2.543,2.543,0,0,0-1.053-.212,2.842,2.842,0,0,0-1.087.212,2.219,2.219,0,0,0-.795.6,2.39,2.39,0,0,0-.5.861A3.342,3.342,0,0,0,992.44,1173.122Z" transform="translate(-707.084 -1095.944)" fill="#642c3c"/>
        <path id="路径_57" data-name="路径 57" d="M1039.153,1177.335h4.767v.924H1038.1V1168h1.052Z" transform="translate(-740.383 -1097.706)" fill="#642c3c"/>
        <path id="路径_58" data-name="路径 58" d="M1066.669,1182.03a1.666,1.666,0,0,0-.471-1.3,1.9,1.9,0,0,0-1.348-.439,3.21,3.21,0,0,0-1.147.212,2.707,2.707,0,0,0-.877.574l-.551-.648a3.192,3.192,0,0,1,1.1-.7,4.366,4.366,0,0,1,1.555-.287,3.14,3.14,0,0,1,1.038.16,2.342,2.342,0,0,1,.843.456,2.031,2.031,0,0,1,.551.76,2.5,2.5,0,0,1,.212,1.087v2.969c0,.258.017.533.032.809a6.779,6.779,0,0,0,.08.714h-.86a5.15,5.15,0,0,1-.081-.534c-.017-.195-.031-.39-.031-.573h-.017a2.96,2.96,0,0,1-1.055.972,2.927,2.927,0,0,1-1.408.307,3.688,3.688,0,0,1-.812-.112,2.115,2.115,0,0,1-.746-.358,1.94,1.94,0,0,1-.573-.631,2.168,2.168,0,0,1,.163-2.205,2.442,2.442,0,0,1,1.07-.683,5.416,5.416,0,0,1,1.523-.287c.574-.049,1.185-.066,1.8-.066Zm-.287,1c-.4,0-.811.017-1.233.049a4.479,4.479,0,0,0-1.1.212,2.021,2.021,0,0,0-.829.439,1,1,0,0,0-.324.76,1.187,1.187,0,0,0,.146.616,1.077,1.077,0,0,0,.373.39,1.43,1.43,0,0,0,.5.227,3.6,3.6,0,0,0,.574.066,2.379,2.379,0,0,0,.924-.181,1.937,1.937,0,0,0,.682-.5,2.216,2.216,0,0,0,.422-.714,2.5,2.5,0,0,0,.146-.86v-.488Z" transform="translate(-757.343 -1105.871)" fill="#642c3c"/>
        <path id="路径_59" data-name="路径 59" d="M1088.453,1180.14l1.637,5.495h.032l1.833-5.495h.958l1.847,5.495h.034l1.62-5.495h1.038l-2.139,6.777h-1.073l-1.816-5.5h-.031l-1.784,5.5h-1.07l-2.139-6.777Z" transform="translate(-775.544 -1106.364)" fill="#642c3c"/>
      </g>
    </g>
  </g>
</svg>
